<svg width="1360" height="857" viewBox="0 0 1360 857" fill="none" xmlns="http://www.w3.org/2000/svg">
<path d="M238.861 385.723L258.205 409.118C251.322 418.877 245.627 429.554 241.321 440.976L211.111 438.099C203.189 437.356 196.172 443.154 195.424 451.062L191.037 497.363C190.276 505.276 196.078 512.288 203.982 513.05L234.224 515.913C236.294 527.949 239.896 539.509 244.807 550.38L221.404 569.723C215.279 574.791 214.423 583.865 219.473 589.972L249.113 625.823C254.177 631.953 263.232 632.8 269.371 627.755L292.779 608.397C302.525 615.284 313.211 620.98 324.633 625.268L321.761 655.509C321.013 663.417 326.815 670.439 334.719 671.183L381.02 675.578C388.919 676.327 395.959 670.524 396.698 662.615L399.579 632.383C411.601 630.309 423.162 626.724 434.041 621.795L453.38 645.212C458.444 651.333 467.517 652.197 473.647 647.125L509.485 617.498C515.606 612.435 516.475 603.383 511.398 597.249L492.054 573.837C498.937 564.087 504.628 553.395 508.943 541.983L539.166 544.873C547.088 545.617 554.1 539.796 554.853 531.892L559.24 485.601C560.002 477.687 554.194 470.67 546.281 469.918L516.058 467.054C513.979 455.028 510.39 443.463 505.466 432.579L528.86 413.226C535.008 408.181 535.85 399.112 530.787 392.982L501.168 357.153C496.101 351.019 487.036 350.145 480.906 355.218L457.507 374.566C447.753 367.67 437.075 361.984 425.649 357.673L428.525 327.455C429.274 319.528 423.471 312.524 415.553 311.767L369.258 307.385C361.353 306.623 354.341 312.435 353.584 320.343L350.702 350.558C338.68 352.65 327.111 356.244 316.249 361.173L296.897 337.751C291.833 331.622 282.778 330.775 276.652 335.834L240.792 365.456C234.654 370.538 233.793 379.598 238.861 385.723ZM382.288 416.036C423.959 419.988 454.537 456.973 450.589 498.649C446.632 540.316 409.643 570.897 367.98 566.936C326.282 562.993 295.714 526 299.679 484.324C303.622 442.652 340.612 412.07 382.288 416.036Z" fill="#C4C4C4" fill-opacity="0.33"/>
<path d="M38.8646 295.374C34.8095 293.282 29.8268 294.877 27.7298 298.936L15.4971 322.694C13.4046 326.749 14.9997 331.74 19.0504 333.828L34.5809 341.813C33.1067 348.682 32.5601 355.601 32.8693 362.452L16.223 367.789C11.8811 369.164 9.47491 373.829 10.8729 378.166L19.0235 403.622C20.4081 407.964 25.0592 410.374 29.3966 408.976L46.0563 403.644C49.7754 409.397 54.2518 414.716 59.4137 419.448L51.4154 434.956C49.3139 439.029 50.918 444.012 54.9776 446.1L78.726 458.35C82.7811 460.434 87.7728 458.83 89.8608 454.797L97.8591 439.253C104.724 440.723 111.647 441.274 118.493 440.969L123.812 457.607C125.192 461.962 129.852 464.346 134.199 462.957L159.641 454.82C164.005 453.43 166.393 448.775 164.995 444.428L159.681 427.796C165.43 424.072 170.758 419.596 175.485 414.429L191.006 422.432C195.066 424.511 200.053 422.93 202.141 418.861L214.378 395.117C216.466 391.066 214.88 386.075 210.821 383.978L195.294 375.98C196.755 369.133 197.315 362.21 197.006 355.35L213.63 350.036C217.985 348.638 220.378 343.995 218.998 339.64L210.852 314.189C209.463 309.843 204.803 307.45 200.465 308.839L183.833 314.162C180.104 308.409 175.624 303.095 170.462 298.363L178.46 282.846C180.539 278.786 178.953 273.794 174.907 271.711L151.154 259.474C147.09 257.372 142.116 258.976 140.006 263.032L132.025 278.549C125.17 277.088 118.242 276.532 111.382 276.841L106.068 260.191C104.683 255.858 100.019 253.461 95.6724 254.85L70.2303 262.996C65.8884 264.389 63.4822 269.027 64.8713 273.382L70.2034 290.015C64.4501 293.752 59.1358 298.215 54.3996 303.372L38.8646 295.374ZM134.88 320.189C156.249 331.198 164.655 357.474 153.65 378.829C142.627 400.23 116.36 408.618 94.9913 397.599C73.5999 386.586 65.1894 360.315 76.2212 338.95C87.2261 317.585 113.497 309.175 134.88 320.189Z" fill="#C4C4C4" fill-opacity="0.33"/>
<path d="M194.342 602.169C196.116 598.737 194.763 594.525 191.34 592.759L178.216 586.007C179.457 580.213 179.918 574.365 179.663 568.572L193.706 564.073C197.393 562.895 199.423 558.965 198.236 555.286L191.367 533.792C190.197 530.113 186.263 528.079 182.58 529.261L168.533 533.756C165.369 528.89 161.587 524.409 157.223 520.394L163.984 507.288C165.75 503.855 164.401 499.63 160.969 497.873L140.895 487.532C137.467 485.771 133.251 487.119 131.494 490.543L124.728 503.654C118.943 502.43 113.091 501.964 107.307 502.22L102.803 488.154C101.638 484.48 97.6953 482.455 94.021 483.638L72.5175 490.516C68.8343 491.69 66.8089 495.615 67.9874 499.294L72.4861 513.346C67.6334 516.514 63.1257 520.286 59.1244 524.655L46.0135 517.898C42.5901 516.124 38.3647 517.472 36.6127 520.891L26.271 540.965C24.4921 544.384 25.8498 548.61 29.2687 550.38L42.4064 557.128C41.1607 562.926 40.6813 568.764 40.9457 574.567L26.8804 579.061C23.2151 580.244 21.1987 584.169 22.3727 587.853L29.2418 609.347C30.4202 613.017 34.3544 615.051 38.0242 613.891L52.0894 609.387C55.2439 614.245 59.0168 618.726 63.3856 622.736L56.6196 635.856C54.8451 639.279 56.1984 643.5 59.6351 645.27L79.7003 655.603C83.1415 657.368 87.3535 656.024 89.1145 652.587L95.8581 639.481C101.67 640.704 107.522 641.179 113.302 640.919L117.81 654.98C118.975 658.663 122.918 660.688 126.592 659.505L148.087 652.627C151.761 651.444 153.791 647.506 152.612 643.836L148.118 629.78C152.975 626.634 157.483 622.861 161.462 618.488L174.595 625.25C178.018 627.006 182.23 625.68 183.996 622.247L194.342 602.169ZM93.4564 604.297C75.3852 594.973 68.2876 572.793 77.5898 554.717C86.892 536.65 109.09 529.544 127.161 538.859C145.223 548.166 152.334 570.36 143.01 588.422C133.712 606.493 111.519 613.604 93.4564 604.297Z" fill="#C4C4C4" fill-opacity="0.33"/>
<path d="M1081.16 479.486L1070 451.424C1079.48 444.311 1088.12 435.965 1095.67 426.489L1123.36 438.49C1130.62 441.627 1139.02 438.301 1142.14 431.053L1160.4 388.625C1163.53 381.377 1160.18 372.964 1152.94 369.815L1125.22 357.817C1126.93 345.802 1127.04 333.765 1125.71 321.978L1153.73 310.879C1161.07 307.97 1164.64 299.653 1161.73 292.328L1144.63 249.324C1141.71 241.973 1133.41 238.39 1126.06 241.275L1098.03 252.385C1090.92 242.879 1082.55 234.212 1073.06 226.648L1084.99 198.938C1088.11 191.69 1084.76 183.269 1077.51 180.137L1035.08 161.757C1027.83 158.622 1019.41 161.946 1016.3 169.196L1004.37 196.895C992.366 195.163 980.344 195.001 968.556 196.318L957.406 168.237C954.484 160.894 946.168 157.288 938.827 160.201L895.915 177.203C888.585 180.11 885.005 188.4 887.936 195.76L899.091 223.839C889.613 230.943 880.974 239.303 873.417 248.768L845.722 236.75C838.458 233.613 830.055 236.962 826.934 244.204L808.681 286.624C805.549 293.872 808.902 302.29 816.154 305.433L843.857 317.426C842.158 329.435 842.028 341.472 843.367 353.276L815.351 364.386C808.001 367.268 804.441 375.584 807.36 382.935L824.446 425.91C827.368 433.267 835.673 436.878 843.014 433.965L871.033 422.861C878.155 432.378 886.518 441.034 896.007 448.62L884.079 476.308C880.956 483.572 884.309 491.977 891.564 495.125L934.001 513.492C941.242 516.641 949.643 513.3 952.769 506.055L964.7 478.373C976.704 480.089 988.738 480.245 1000.51 478.922L1011.67 507.012C1014.59 514.363 1022.89 517.946 1030.23 515.045L1073.16 498.054C1080.51 495.136 1084.08 486.834 1081.16 479.486ZM954.789 406.761C916.593 390.222 898.953 345.859 915.385 307.668C931.823 269.487 976.114 251.937 1014.3 268.482C1052.52 285.021 1070.15 329.389 1053.7 367.575C1037.28 405.764 992.985 423.314 954.789 406.761Z" fill="#C4C4C4" fill-opacity="0.33"/>
<path d="M1264.96 619.817C1268.4 622.788 1273.58 622.416 1276.55 618.986L1293.87 598.906C1296.84 595.48 1296.45 590.284 1293.02 587.318L1279.88 575.964C1282.89 569.675 1285.03 563.12 1286.32 556.43L1303.63 555.178C1308.15 554.867 1311.55 550.925 1311.21 546.408L1309.24 519.909C1308.91 515.39 1304.98 511.971 1300.47 512.305L1283.14 513.55C1280.88 507.12 1277.79 500.933 1273.9 495.153L1285.22 482.048C1288.2 478.607 1287.81 473.418 1284.37 470.449L1264.27 453.048C1260.84 450.085 1255.64 450.464 1252.69 453.87L1241.36 467.009C1235.07 463.98 1228.51 461.825 1221.83 460.514L1220.55 443.197C1220.23 438.666 1216.28 435.271 1211.76 435.594L1185.29 437.489C1180.76 437.808 1177.37 441.745 1177.71 446.271L1178.99 463.583C1172.57 465.832 1166.38 468.907 1160.62 472.789L1147.48 461.42C1144.05 458.46 1138.86 458.818 1135.9 462.259L1118.57 482.325C1115.61 485.748 1115.99 490.941 1119.42 493.919L1132.56 505.284C1129.57 511.555 1127.42 518.111 1126.13 524.81L1108.83 526.046C1104.3 526.375 1100.92 530.298 1101.24 534.828L1103.2 561.322C1103.54 565.846 1107.48 569.25 1111.99 568.925L1129.29 567.682C1131.56 574.114 1134.66 580.297 1138.54 586.078L1127.22 599.191C1124.27 602.625 1124.64 607.819 1128.07 610.78L1148.17 628.169C1151.61 631.151 1156.79 630.768 1159.77 627.346L1171.07 614.228C1177.36 617.246 1183.92 619.407 1190.62 620.717L1191.89 638.046C1192.22 642.556 1196.17 645.965 1200.69 645.642L1227.15 643.738C1231.67 643.41 1235.07 639.495 1234.74 634.962L1233.45 617.646C1239.87 615.385 1246.04 612.32 1251.81 608.449L1264.96 619.817ZM1177.98 573.338C1159.89 557.694 1157.87 530.343 1173.45 512.295C1189.06 494.208 1216.38 492.263 1234.47 507.916C1252.57 523.57 1254.6 550.917 1238.99 568.968C1223.4 587.024 1196.08 588.989 1177.98 573.338Z" fill="#C4C4C4" fill-opacity="0.33"/>
<path d="M1187.34 266.981C1184.83 269.881 1185.16 274.267 1188.06 276.774L1199.17 286.374C1196.63 291.679 1194.82 297.219 1193.73 302.875L1179.12 303.929C1175.28 304.202 1172.41 307.522 1172.7 311.354L1174.35 333.726C1174.63 337.554 1177.96 340.441 1181.79 340.162L1196.4 339.114C1198.33 344.556 1200.94 349.771 1204.22 354.672L1194.65 365.747C1192.15 368.648 1192.47 373.046 1195.38 375.547L1212.37 390.243C1215.27 392.747 1219.66 392.433 1222.15 389.538L1231.73 378.46C1237.03 380.998 1242.58 382.82 1248.22 383.93L1249.31 398.571C1249.58 402.394 1252.92 405.274 1256.74 404.993L1279.11 403.391C1282.94 403.12 1285.81 399.804 1285.52 395.974L1284.44 381.346C1289.86 379.424 1295.09 376.836 1299.97 373.554L1311.07 383.155C1313.96 385.671 1318.35 385.359 1320.84 382.468L1335.49 365.502C1338 362.617 1337.67 358.217 1334.78 355.706L1323.65 346.108C1326.2 340.799 1328.02 335.272 1329.11 329.605L1343.74 328.561C1347.55 328.278 1350.41 324.959 1350.13 321.126L1348.48 298.754C1348.19 294.933 1344.87 292.046 1341.05 292.306L1326.42 293.358C1324.5 287.927 1321.9 282.715 1318.61 277.817L1328.19 266.73C1330.7 263.839 1330.37 259.445 1327.46 256.93L1310.47 242.245C1307.56 239.733 1303.18 240.044 1300.68 242.951L1291.13 254.03C1285.8 251.486 1280.25 249.655 1274.61 248.551L1273.52 233.912C1273.25 230.081 1269.91 227.201 1266.09 227.482L1243.73 229.086C1239.9 229.368 1237.03 232.696 1237.32 236.517L1238.4 251.148C1232.98 253.048 1227.75 255.635 1222.89 258.927L1211.77 249.317C1208.87 246.817 1204.5 247.111 1201.99 250.013L1187.34 266.981ZM1285.28 288.577C1300.58 301.821 1302.29 324.909 1289.11 340.188C1275.93 355.458 1252.84 357.118 1237.55 343.884C1222.26 330.66 1220.54 307.555 1233.74 292.295C1246.91 277.019 1270 275.353 1285.28 288.577Z" fill="#C4C4C4" fill-opacity="0.33"/>
</svg>
